<?xml version="1.0" standalone="no"?>
<!DOCTYPE svg PUBLIC "-//W3C//DTD SVG 20010904//EN"
 "http://www.w3.org/TR/2001/REC-SVG-20010904/DTD/svg10.dtd">
<svg version="1.0" xmlns="http://www.w3.org/2000/svg"
 width="512.000000pt" height="512.000000pt" viewBox="0 0 512.000000 512.000000"
 preserveAspectRatio="xMidYMid meet">
<metadata>
Created by potrace 1.14, written by Peter Selinger 2001-2017
</metadata>
<g transform="translate(0.000000,512.000000) scale(0.100000,-0.100000)"
fill="#000000" stroke="none">
<path d="M678 5091 l-33 -29 -1 -559 -1 -558 -34 -8 c-158 -40 -281 -130 -348
-257 -62 -116 -60 -72 -61 -1340 0 -635 0 -1178 0 -1205 l0 -51 -64 0 c-73 -1
-111 -19 -127 -61 -12 -33 -11 -520 2 -588 16 -89 80 -206 150 -274 63 -62 76
-71 159 -111 109 -52 9 -50 2240 -50 2224 0 2126 -2 2240 49 132 59 240 178
292 322 21 60 22 83 26 351 4 280 3 288 -17 317 -26 36 -50 45 -119 43 -34 -1
-54 3 -57 11 -3 6 -6 561 -8 1232 -2 1092 -4 1225 -19 1266 -63 178 -212 312
-380 343 -21 4 -38 10 -39 14 0 4 -1 256 -2 559 l-2 553 -28 27 -27 28 -1855
3 -1855 2 -32 -29z"/>
</g>
</svg>
